<?xml version="1.0" encoding="UTF-8"?>
<!DOCTYPE svg PUBLIC "-//W3C//DTD SVG 1.1//EN" "http://www.w3.org/Graphics/SVG/1.1/DTD/svg11.dtd">
<!-- Creator: CorelDRAW 2021 (64 Bit) -->
<svg xmlns="http://www.w3.org/2000/svg" xml:space="preserve" width="500px" height="500px" version="1.1" shape-rendering="geometricPrecision" text-rendering="geometricPrecision" image-rendering="optimizeQuality" fill-rule="evenodd" clip-rule="evenodd"
viewBox="0 0 500 500"
 xmlns:xlink="http://www.w3.org/1999/xlink"
 xmlns:xodm="http://www.corel.com/coreldraw/odm/2003">
 <g id="Camada_x0020_1">
  <metadata id="CorelCorpID_0Corel-Layer"/>
  <path fill="#E3812A" d="M0 0l500 0 0 35 -125 0 0 113 -35 0 0 -113 -305 0 0 311 37 0 0 35 64 0 0 35 -64 0 0 -35 -37 0 0 85 -35 0 0 -466zm136 451l0 -35 99 0 0 -70 35 0 0 -64 35 0 0 -64 35 0 0 -35 125 0 0 35 -125 0 0 64 -35 0 0 64 -35 0 0 120 -35 0 0 -15 -99 0z"/>
  <polygon fill="#713500" points="0,500 0,465 200,465 200,416 136,416 136,381 72,381 72,346 0,346 0,311 72,311 72,346 136,346 136,381 200,381 200,346 235,346 235,465 465,465 465,183 340,183 340,218 305,218 305,282 270,282 270,346 235,346 235,282 270,282 270,218 305,218 305,0 340,0 340,148 465,148 465,0 500,0 500,500 "/>
  <path fill="#B15402" d="M375 35l90 0 0 113 -90 0 0 -113zm-340 346l37 0 0 35 64 0 0 35 64 0 0 15 -165 0 0 -85zm0 -346l270 0 0 183 -35 0 0 64 -35 0 0 64 -35 0 0 35 -64 0 0 -35 -64 0 0 -35 -37 0 0 -276zm270 311l0 -64 35 0 0 -64 125 0 0 248 -195 0 0 -120 35 0z"/>
 </g>
</svg>
