<svg xmlns="http://www.w3.org/2000/svg" viewBox="0 0 400 120" style="enable-background:new 0 0 400 120" xml:space="preserve">
  <style>
    .st1,.st2,.st3,.st4{fill:#f73738;stroke:#000;stroke-width:2;stroke-miterlimit:4.1}.st2,.st3,.st4{fill:#04d8f7}.st3,.st4{fill:#f6c729}.st4{fill:#03c802}
  </style>
  <g id="svg1">
    <path id="path4010" d="m135.3 13.66-12.22 12.41 12.03 10.97-3.12 4.03h-4.72l-3.84 6.41.38 1.97 20.44 1.34 7.84-12.94-14.2-13.75 8.66-.25 1.25-9.47-12.5-.72zm92.87 1.53.53 34.47 12.09.12-.25-9.97 9.22 10.22 10.09-5.69-7.94-6.44 5.53-4.41 1.28-7.31-12-10.75-18.55-.24zm-33 .16-17.84.53.53 33.19h10.72l-.72-6.25h6.25l8.28-7.19 1.06 14.91L228.17 47l-.12-11.62-15.62 5.56v-3.16l9.44-1.88-.5-7.97-7.94 2.28V27.3l7.56-2.03.12-8.94-18.62 5-7.32-5.98zm-42.37 1.09.16 29.19 8.22 4.72 10.44-2.06 4.38-5-.72-23.56-9.45.27-4.28-3.19-8.75-.37zm37.53 45.84 8.06 46.69 13.38-.5 5.31-11.13 5.81 9.34 7.31-.25 2.69-8.97 9.44 7.84h17.91l9.19-8.03.28 9.78h12.62l-.5-13 10.59 15.28 10.25-7.84-.03 4.69 21.41-.28.06 1.66 18.91-.12 11.25-10.22.25-25.38-13.38-9.19-18.06.38.69 30.12-7.62-.22-3.28-28.91-9.84.38-.31 34.69-8.91-10.19 5.06-2.78v-17.4l-8.34-5.94-23.09-.63-1.69 9.81-7.78-6.16-17.88.38-11.66-3.66-5.78 25.22-5.56-12.62-4.53 13.66L206.74 62l-16.41.28zm-145.66-.12-11.97.12-7.31 45.94 17.53.5L42.67 86l6.94 19.5 7.5-20.19 2.81 8.41-4.66 7.66 7.44.53 1.88 5.59 14.69-6.62-.91-2.28 11.88 2.06 1.06 7.84h16.06l10.91-.53-1.09-13.94 9.66 14.81 10.88-9.63-8.91-10.88 5.88-3.22-.19-16.06-8.92-6.05-21.59-.19.91 38.75-12.16-34.12-15.72-1.78-7 11.47-5.38-13.84-13-.63-3.03 8.19-3.94-8.69zm102.38 1.37-9.88.34.91 42.13 15.5-.53-.84-5.44 6.78 5.41 19.19-.25 9.06-9.63-1.44-21.34-10.5-8.38-16.88-.09-7.69 7.5-1.56 10.44-2.65-20.16zm21.28 14.38 7.56 6.78-7.22 6.5-6.25-6.44 5.91-6.84zm82.69.25 6.44 6.31-6.44 6.06-6.69-6.06 6.69-6.31zm85.81.12 4.31.28 3.16 3.41v2.88l-3.41 2.03h-4.06v-8.6z" style="stroke:#000;stroke-width:2;stroke-miterlimit:4.1"/>
  </g>
  <g id="svg2" xmlns:cc="http://creativecommons.org/ns#" xmlns:dc="http://purl.org/dc/elements/1.1/" xmlns:inkscape="http://www.inkscape.org/namespaces/inkscape" xmlns:rdf="http://www.w3.org/1999/02/22-rdf-syntax-ns#" xmlns:sodipodi="http://sodipodi.sourceforge.net/DTD/sodipodi-0.dtd" xmlns:svg="http://www.w3.org/2000/svg">
    <path id="path2972-8" sodipodi:nodetypes="ccccccccccccc" class="st1" d="m120.27 46.44 20.44 1.34 7.85-12.94-14.19-13.74 8.66-.27 1.25-9.46-12.49-.71-12.23 12.4 12.05 10.98-3.12 4.02h-4.73l-3.84 6.43.35 1.95z"/>
    <path id="path3033-6" sodipodi:nodetypes="ccccccccccc" class="st2" d="m172.48 40.28-.71-23.56-9.46.27.28 16.6-3.67-.36-.89-19.42-8.75-.39.18 29.18 8.21 4.73 10.44-2.05 4.37-5z"/>
    <path id="path3954" class="st3" d="m191.66 12.34-17.84.53.53 33.19h10.72l-.72-6.25h6.25l9.28-8.03-.19-12.84-8.03-6.6zm-.44 10.96.62 2.75-5.41 4.81-3.16.12-.62-7.44 8.57-.24z"/>
    <path id="path3958" sodipodi:nodetypes="ccccccccccccc" class="st2" d="m199.94 47.52 24.74-3.53-.13-11.61-15.65 5.55v-3.16l9.47-1.89-.5-7.95-7.95 2.27v-2.9l7.57-2.02.13-8.96-19.69 5.3 2.01 28.9z"/>
    <path id="path3960" sodipodi:nodetypes="ccccccccccccccccc" class="st4" d="m224.66 12.18.53 34.47 12.09.12-.25-9.97 9.22 10.22 10.09-5.69-7.94-6.44 5.53-4.41 1.28-7.31-12-10.75-18.55-.24zm19.31 11.44V26l-4.65 3.99-2.53.25.13-6.68 7.05.06z"/>
    <path id="path3966" sodipodi:nodetypes="cccccccccccccc" class="st4" d="m337.63 59.65-18.06.38 1.03 44.53 18.91-.12 11.25-10.22.24-25.38-13.37-9.19zm-4.3 15.63 4.3.28 3.16 3.41v2.88l-3.4 2.03h-4.06v-8.6z"/>
    <path id="path3971" class="st1" d="m299.13 103.17 27.13-.38-.13-12.48-13.5-.38-3.28-28.9-9.84.38-.38 41.76z"/>
    <path id="path3973" class="st4" d="m264.91 59.15 1.28 44.91h12.62l-.5-13 10.59 15.28 9.97-8.47-8.59-11.97 5.06-2.78V65.71L287 59.77l-22.09-.62zm13.16 12.59 8.44.25v2.53l-6.19 5.06-2-.12-.25-7.72z"/>
    <path id="path3978" class="st2" d="m254.44 62.8-17.91.38-9.47 15 1.25 15.41 10.5 8.72h17.91l12.25-12-4.16-19.44-10.37-8.07zm-6.94 12.35 6.44 6.31-6.44 6.06-6.69-6.06 6.69-6.31z"/>
    <path id="path3983" class="st3" d="m208.27 105.45 5.3-11.11 5.81 9.34 7.32-.25 11.86-39.63-13.63-4.29-5.81 25.24-5.55-12.62-4.54 13.63-5.81-26.75-16.41.25 8.08 46.69 13.38-.5z"/>
    <path id="path3985" class="st4" d="m148.75 70.24 3.3 26.44 5.95 5.75 17.19-.25 9.06-9.62-1.44-21.34-10.5-8.38-16.88-.09-6.68 7.49zm16.07 4.66 7.56 6.78-7.22 6.5-6.25-6.44 5.91-6.84z"/>
    <path id="path3990" class="st1" d="m134.55 102.99 15.53-.54-5.53-41.94-10.89.36.89 42.12z"/>
    <path id="path3992" class="st3" d="m100.47 59.8 1.06 45.69 13.22-.53-1.09-13.94 9.66 14.81 10.35-9.16-8.38-11.34 5.88-3.22-.19-16.06-8.91-6.06-21.6-.19zm20.44 12.13.09 2.5-5.38 4.91h-2.59l-.16-7.22 8.04-.19z"/>
    <path id="path3997" class="st2" d="M73.5 62.65 51.75 98.37l9.44.69 4.12-5.16 21.41 3.75 1.06 7.84h16.06L89.22 64.43 73.5 62.65zm10.38 17 .47 8.62-9.59-.38 5.72-8.12 3.4-.12z"/>
    <path id="path4002" sodipodi:nodetypes="ccccccccccccc" class="st4" d="m21.87 105.2 17.54.5-.25-22.72 6.94 19.5 7.51-20.19 7.45 22.21 14.7-6.63-14.65-37.6-13-.63-3.03 8.2-3.91-8.71-11.99.13-7.31 45.94z"/>
    <path id="path4004" sodipodi:nodetypes="ccccccccc" class="st2" d="M356.17 69.86h5.17l-.38-6.79 4.03-.03-.37-3.91-12.87-.13.38 3.91h3.66l.38 6.95z"/>
    <path id="path4006" sodipodi:nodetypes="ccccccccccccc" class="st2" d="m364.5 59.26 3-.25 3.63 3.6 3.31-3.22h3.69v10.6h-4.32v-5.14l-2.52 2.62-2.49-2.24-.06 4.98-4.1.03-.14-10.98z"/>
  </g>
</svg>
